<?xml version="1.0" standalone="no"?>
<!DOCTYPE svg PUBLIC "-//W3C//DTD SVG 20010904//EN"
 "http://www.w3.org/TR/2001/REC-SVG-20010904/DTD/svg10.dtd">
<svg version="1.0" xmlns="http://www.w3.org/2000/svg"
 width="70.000000pt" height="70.000000pt" viewBox="0 0 70.000000 70.000000"
 preserveAspectRatio="xMidYMid meet">

<g transform="translate(0.000000,70.000000) scale(0.100000,-0.100000)"
fill="#000000" stroke="none">
<path d="M0 350 l0 -350 350 0 350 0 0 350 0 350 -350 0 -350 0 0 -350z m217
318 c18 -23 21 -65 5 -64 -20 1 -37 -28 -27 -50 4 -11 8 -30 9 -44 1 -35 19
-35 31 0 6 16 15 30 20 30 14 1 18 -36 6 -57 -8 -16 12 -25 195 -88 112 -38
210 -77 219 -86 9 -8 13 -23 10 -31 -17 -43 -167 -72 -252 -49 -44 12 -46 14
-138 145 -38 55 -50 65 -57 53 -5 -9 -15 -14 -23 -11 -21 8 -20 3 24 -126 75
-225 73 -221 101 -218 43 5 37 -27 -10 -46 -55 -22 -70 -20 -70 7 0 13 -4 27
-9 33 -5 5 -18 38 -30 74 -12 36 -31 78 -44 93 l-23 29 -29 -92 c-16 -50 -33
-94 -37 -96 -18 -11 -6 -24 17 -18 21 5 25 3 25 -15 0 -19 -6 -21 -60 -21
l-61 0 7 38 c4 20 13 49 20 64 50 98 68 269 30 290 -9 5 -16 17 -16 26 0 33
31 106 51 120 10 7 19 22 19 32 0 10 6 21 13 23 9 4 9 8 -2 15 -11 8 -10 13 5
31 20 23 66 28 81 9z"/>
</g>
</svg>
